<?xml version="1.0" standalone="no"?>
<!DOCTYPE svg PUBLIC "-//W3C//DTD SVG 20010904//EN"
 "http://www.w3.org/TR/2001/REC-SVG-20010904/DTD/svg10.dtd">
<svg version="1.0" xmlns="http://www.w3.org/2000/svg"
 width="260.000000pt" height="260.000000pt" viewBox="0 0 260.000000 260.000000"
 preserveAspectRatio="xMidYMid meet">
<metadata>
Created by potrace 1.11, written by Peter Selinger 2001-2013
</metadata>
<g transform="translate(0.000000,260.000000) scale(0.100000,-0.100000)"
fill="#000000" stroke="none">
<path d="M438 2170 c-4 -15 -3 -220 1 -220 83 -4 631 -4 632 0 4 19 3 213 -1
218 -6 8 -629 10 -632 2z"/>
<path d="M1146 2170 c-1 -3 -2 -66 -1 -140 l0 -135 25 2 c46 4 281 5 285 2 2
-2 -2 -25 -7 -51 l-11 -48 -124 3 -123 3 0 -133 0 -133 85 3 c96 4 93 9 55
-79 l-18 -41 -101 3 -101 4 0 -138 0 -139 570 1 c314 0 571 2 571 5 4 18 5
248 1 259 -3 9 -24 11 -73 8 l-69 -4 0 192 0 191 -167 -2 c-93 -2 -178 -1
-189 2 -21 5 -21 7 -10 44 6 22 14 43 18 46 5 6 366 7 438 2 l25 -2 3 140 3
140 -542 0 c-297 0 -542 -2 -543 -5z m664 -632 c5 -6 5 -83 1 -109 -1 -3 -44
-5 -96 -5 -59 1 -94 5 -92 11 2 6 11 33 21 60 l16 50 72 0 c40 0 75 -3 78 -7z"/>
<path d="M372 1763 c2 -73 6 -133 11 -133 4 0 169 0 367 0 l360 0 0 136 c0 97
-3 133 -11 128 -14 -8 -603 -12 -677 -4 l-53 6 3 -133z"/>
<path d="M436 1561 c-1 -4 -2 -53 -2 -110 l1 -103 317 -2 317 -1 3 55 c2 30 2
80 0 111 l-4 55 -314 0 c-174 0 -316 -2 -318 -5z"/>
<path d="M437 1275 c-2 -5 -3 -55 -2 -110 l0 -100 317 -1 317 -1 3 76 c2 42 1
92 -2 111 l-5 35 -312 0 c-200 0 -314 -4 -316 -10z"/>
<path d="M1193 708 l-1 -378 148 0 149 0 -1 28 c0 15 0 33 1 40 1 9 46 12 191
12 l190 0 0 -40 0 -40 148 0 147 0 0 378 0 377 -485 0 -486 0 -1 -377z m665
113 c10 -1 12 -20 10 -73 l-3 -73 -180 -1 c-99 0 -184 3 -190 7 -8 6 -12 97
-6 137 1 6 319 9 369 3z"/>
<path d="M422 707 c-1 -166 -3 -319 -4 -340 l-3 -37 142 0 143 0 0 40 0 40 65
0 c63 0 65 -1 65 -25 0 -14 3 -25 8 -26 10 -1 212 -1 237 0 20 1 20 8 20 320
l0 319 -327 0 c-180 0 -331 3 -336 6 -5 3 -10 -121 -10 -297z m408 6 l0 -64
-67 3 -66 3 -1 60 c-1 59 -1 60 29 65 16 3 47 3 68 1 l37 -3 0 -65z"/>
</g>
</svg>
